<?xml version="1.0" encoding="utf-8"?>
<!DOCTYPE svg PUBLIC "-//W3C//DTD SVG 1.0//EN" "http://www.w3.org/TR/2001/REC-SVG-20010904/DTD/svg10.dtd">
<svg version="1.0" xmlns="http://www.w3.org/2000/svg" width="509px" height="181px" viewBox="0 0 509 181" preserveAspectRatio="xMidYMid meet">
 <g fill="#ffffff">
  <path d="M7 179.80 c0 -0.85 0.45 -1.35 1.65 -1.85 0.85 -0.35 7.10 -3.30 13.85 -6.60 12.55 -6.10 21.40 -10.05 24.50 -10.95 2.80 -0.80 10.45 -3.85 13.50 -5.40 1.50 -0.75 4.95 -3.05 7.60 -5.05 5.85 -4.45 12.65 -8.85 18.40 -12 9.65 -5.25 15.40 -8.65 18.40 -10.85 1.70 -1.30 4.20 -3.05 5.50 -3.95 4.25 -2.90 7.30 -5.15 10.10 -7.40 1.50 -1.25 4 -3.10 5.50 -4.05 3.70 -2.45 10.85 -8.20 12.90 -10.40 1.80 -1.90 13.25 -11.95 18.55 -16.20 1.80 -1.45 4.25 -3.10 5.45 -3.60 4.40 -1.95 19.40 -14.10 23.95 -19.40 6.65 -7.70 9.75 -10.40 17.65 -15.40 2.05 -1.35 4.75 -3.20 6 -4.25 3.95 -3.20 12.90 -8.85 15.75 -9.90 3.30 -1.25 10.90 -2.55 14.75 -2.55 3.90 0 7.75 1.35 16.80 5.90 4.40 2.20 8.50 4.15 9.15 4.35 0.65 0.20 6.65 3 13.25 6.20 6.65 3.25 14.75 6.95 18.05 8.25 3.30 1.35 8.95 3.60 12.50 5.10 7.95 3.30 14.75 5.70 17.75 6.25 1.25 0.20 3.50 0.80 5 1.25 2.20 0.75 4.60 0.90 12 0.95 l9.25 0 10 2.40 c5.50 1.35 13.15 3.30 17 4.40 13.75 3.85 17.55 4.60 22.50 4.35 5.20 -0.30 8.75 -1.60 17.80 -6.50 l5.50 -3 4.35 0.25 c6.35 0.40 13.30 1.25 14.85 1.85 0.75 0.30 3.75 0.85 6.70 1.20 2.90 0.40 6.40 1.10 7.75 1.55 1.30 0.45 4.55 1.25 7.25 1.80 7.65 1.50 7.95 1.60 15.80 5.70 9.50 4.95 10.20 5.40 14.90 9.65 3.45 3.15 5.45 4.30 9.25 5.40 0.45 0.15 0.60 8.95 0.60 41.95 l0 41.75 -251 0 -251 0 0 -1.20z m179.05 -21.30 c1.50 -0.30 3.90 -1.10 5.35 -1.80 2.05 -1 2.60 -1.50 2.60 -2.45 l0 -1.20 -2.60 0.80 c-1.85 0.55 -4.15 0.70 -7.95 0.55 -4.85 -0.15 -5.45 -0.30 -7.35 -1.60 -7.15 -4.95 -6.60 -21 1.10 -31.35 3.45 -4.70 8.80 -6.80 15.85 -6.30 2.05 0.15 4.15 0.40 4.75 0.60 0.90 0.30 1.15 0.05 1.55 -1.65 l0.50 -1.95 -2.05 -0.55 c-4.25 -1.10 -7.05 -1.25 -10.35 -0.40 -6.90 1.75 -12.15 5.40 -16.10 11.30 -4.10 6 -6.50 15.80 -5.40 21.70 1.10 6.05 5.60 11.50 11.10 13.55 3.60 1.35 5.15 1.45 9 0.75z m88.85 -0.30 c4.85 -0.95 11 -3.90 11.35 -5.40 0.65 -2.75 3.20 -18.05 3.05 -18.20 -0.10 -0.05 -2.50 -0.30 -5.35 -0.45 -5.75 -0.30 -6.05 -0.20 -6.60 2.75 l-0.30 1.60 3.20 0 3.25 0 -0.05 2.15 c0 3 -1.60 10.55 -2.35 11.50 -1.20 1.40 -5.05 2.35 -9.80 2.35 -6.35 0 -8.05 -0.60 -11.15 -3.75 -2.10 -2.15 -2.65 -3.10 -3 -5.10 -0.65 -3.90 -0.35 -12.20 0.65 -15.65 1.65 -5.95 6.05 -11.15 11.45 -13.55 3.40 -1.45 11.90 -1.90 15.70 -0.80 l2.60 0.75 0.50 -1.25 c0.25 -0.65 0.45 -1.40 0.45 -1.65 0 -0.80 -2.70 -1.90 -6.05 -2.55 -7 -1.30 -17.05 2.30 -22.85 8.10 -6.80 6.85 -10.35 19.45 -7.65 27.20 2 5.70 6.40 10 12 11.80 3.50 1.10 6.05 1.15 10.95 0.15z m110.60 -0.50 c5.95 -1.75 10.65 -5.70 14.65 -12.30 5.50 -9.10 5.80 -22.40 0.65 -29.15 -1.60 -2.05 -6.30 -4.50 -10.15 -5.25 -6 -1.20 -13.40 1.70 -18.50 7.20 -6.75 7.20 -10.50 19.30 -8.45 27.30 1.80 6.95 6 11.50 12.05 13.05 1.95 0.50 6.55 0.10 9.75 -0.85z m-178.40 0.20 c0.40 -0.35 1.95 -2.75 3.40 -5.25 l2.60 -4.65 10.75 0 c8.10 0 10.70 0.15 10.85 0.65 0.10 0.30 0.50 2.65 0.85 5.10 l0.70 4.50 2.65 0.15 c2.50 0.15 2.60 0.10 2.35 -1 -1 -4.45 -3.35 -15.80 -4.45 -21.65 -1.15 -5.90 -3.30 -16.65 -4.70 -23.15 l-0.35 -1.60 -2.35 3.85 c-17.55 29.25 -25.90 43.25 -25.90 43.45 0 0.50 2.85 0.15 3.60 -0.40z m97.20 -2.90 c1.80 -9.35 2.95 -15.50 5.20 -28 1.35 -7.55 2.60 -14.25 2.75 -14.85 0.25 -1.10 0.10 -1.15 -2.20 -1.15 -2.30 0 -2.50 0.10 -2.75 1.40 -0.15 0.75 -1.40 7.55 -2.75 15.10 -1.40 7.55 -3.20 17.45 -4.05 22 -0.80 4.55 -1.50 8.45 -1.50 8.65 0 0.20 1.05 0.35 2.35 0.25 l2.30 -0.15 0.65 -3.25z m20.30 -4.75 c0.75 -4.40 1.65 -9.20 1.95 -10.70 l0.55 -2.70 4.30 0.35 c2.40 0.15 4.55 0.55 4.85 0.85 0.25 0.25 2.55 4.95 5.05 10.35 l4.55 9.85 2.30 0.15 c1.30 0.10 2.35 0.05 2.35 -0.15 0 -0.15 -2 -4.30 -4.50 -9.25 -3.40 -6.75 -4.50 -9.50 -4.50 -10.95 0 -1.60 0.20 -2.05 1.15 -2.30 4.95 -1.50 9.45 -6.45 10.70 -11.90 0.70 -2.95 0.65 -3.05 -0.70 -5.80 -1.10 -2.25 -1.95 -3.10 -4.15 -4.45 -1.50 -0.90 -3.65 -1.90 -4.75 -2.20 -2.30 -0.70 -16.15 -0.70 -16.85 0 -0.25 0.25 -1.55 6.50 -2.90 13.90 -1.35 7.40 -2.55 14.15 -2.75 14.95 -0.15 0.85 -0.80 4.65 -1.50 8.50 -0.70 3.85 -1.40 7.65 -1.55 8.40 l-0.30 1.40 2.65 -0.15 2.65 -0.15 1.40 -8z"/>
  <path d="M373.45 153.35 c-1 -0.65 -2.30 -2.25 -3.05 -3.80 -1.30 -2.55 -1.40 -3.15 -1.40 -9.25 0 -7.25 1.10 -12.05 3.75 -16.60 3.75 -6.35 7.55 -8.70 14.35 -8.70 5.10 0 6.50 0.45 9 2.85 2.50 2.45 3.10 5.15 2.80 12.85 -0.30 7.15 -1.75 12.20 -4.85 16.75 -3.50 5.10 -7.30 7 -14.35 7.05 -3.90 0 -4.80 -0.15 -6.25 -1.15z"/>
  <path d="M217.65 144.65 c-1.55 -0.60 -0.60 -3.55 3.65 -11.15 6.25 -11.30 5.70 -10.50 7.55 -10.50 0.85 0 1.70 0.20 1.90 0.50 0.45 0.75 2.20 12.05 2.55 16.65 l0.35 4.20 -2.70 0.30 c-3.10 0.40 -12.40 0.40 -13.30 0z"/>
  <path d="M328.65 132.20 c-0.40 -1 0.20 -6.65 1.10 -10.60 0.40 -1.75 0.75 -3.70 0.75 -4.40 0 -1.80 1.90 -2.30 8 -2.10 8.45 0.30 10.25 1.95 9.90 8.95 -0.15 3.65 -0.25 4 -1.90 5.70 -2.35 2.45 -5.40 3.25 -12.10 3.25 -4.45 0 -5.50 -0.15 -5.75 -0.80z"/>
  <path d="M0 76.50 l0 -76.50 254.50 0 254.50 0 0 34.50 0 34.50 -1.45 0 c-0.95 0 -3.80 -1.45 -8.15 -4.05 -10.90 -6.65 -14.15 -7.95 -25.30 -10.25 -3.40 -0.70 -7.70 -1.80 -9.60 -2.50 -1.85 -0.65 -5.05 -1.45 -7.10 -1.75 -2 -0.30 -4.20 -0.80 -4.90 -1.05 -1.70 -0.65 -12.30 -2.40 -14.60 -2.40 -1.05 0 -3.40 -0.25 -5.30 -0.60 -6 -1 -13.50 1.35 -21.35 6.75 -6.25 4.25 -9.25 4.05 -27.95 -1.95 -4.65 -1.50 -8.85 -2.70 -9.30 -2.70 -0.45 0 -4.50 -1 -9.05 -2.25 l-8.20 -2.30 -8.75 0.35 -8.75 0.30 -6.75 -2.25 c-7.65 -2.55 -13.40 -4.90 -23.05 -9.35 -3.70 -1.70 -7.50 -3.40 -8.45 -3.75 -0.95 -0.35 -2.95 -1.30 -4.35 -2.15 -5.35 -3.15 -24.20 -12.35 -26.40 -12.90 -0.80 -0.20 -2.95 -1.05 -4.75 -1.95 -7.05 -3.50 -14.70 -6 -20.35 -6.65 -3.55 -0.40 -5.40 -0.30 -13 0.85 -8.90 1.35 -21.90 6.95 -31.15 13.55 -3.15 2.25 -6.65 4.55 -7.75 5.10 -1.10 0.55 -3.45 2.05 -5.25 3.35 -1.80 1.25 -4.60 3.20 -6.25 4.30 -3.30 2.20 -10.35 9.10 -13.30 13.05 -1.95 2.50 -11.15 10.65 -15.10 13.35 -1.15 0.75 -4 2.55 -6.35 3.95 -2.35 1.45 -6.50 4.55 -9.25 6.90 -2.75 2.35 -5.90 4.95 -7 5.75 -1.10 0.80 -4.80 4.05 -8.25 7.15 -3.45 3.15 -7.50 6.50 -9 7.45 -1.50 1 -5.80 4.15 -9.50 7.05 -9.45 7.35 -19.25 14.20 -22.55 15.70 -1.55 0.70 -5.15 2.75 -8 4.55 -2.85 1.75 -6.10 3.70 -7.20 4.25 -1.10 0.55 -3.80 2.30 -6 3.85 -9.40 6.60 -12.55 8.45 -17.90 10.35 -2.95 1.05 -5.80 1.90 -6.25 1.90 -0.45 0 -3.30 1.15 -6.35 2.55 -3 1.40 -7.50 3.30 -10 4.30 -2.45 1 -7.50 3.20 -11.20 4.95 -3.70 1.75 -7.10 3.20 -7.65 3.20 -0.85 0 -0.90 -2.40 -0.90 -76.50z"/>
 </g>
 <g fill="#304b63">
  <path d="M0 166.35 l0 -14.70 6.50 -3.10 c3.60 -1.70 8.70 -4 11.40 -5.05 2.65 -1.05 7.35 -3.10 10.35 -4.45 3.05 -1.40 5.90 -2.55 6.35 -2.55 0.45 0 3.30 -0.85 6.25 -1.90 5.35 -1.90 8.50 -3.75 17.90 -10.35 2.20 -1.55 4.90 -3.30 6 -3.85 1.10 -0.55 4.35 -2.50 7.20 -4.25 2.85 -1.80 6.45 -3.85 8 -4.55 3.30 -1.50 13.10 -8.35 22.55 -15.70 3.70 -2.90 8 -6.05 9.50 -7.05 1.50 -0.95 5.55 -4.30 9 -7.45 3.45 -3.10 7.15 -6.35 8.25 -7.15 1.10 -0.80 4.25 -3.40 7 -5.75 2.75 -2.35 6.90 -5.45 9.25 -6.90 2.35 -1.40 5.20 -3.20 6.35 -3.95 3.95 -2.70 13.15 -10.85 15.10 -13.35 2.95 -3.95 10 -10.85 13.30 -13.05 1.65 -1.10 4.45 -3.05 6.25 -4.30 1.80 -1.30 4.15 -2.80 5.25 -3.35 1.10 -0.55 4.60 -2.85 7.75 -5.10 6.40 -4.55 15.65 -9.20 22.85 -11.50 4.45 -1.45 6.55 -1.85 15.15 -3 8.05 -1.10 18.65 1.30 29.50 6.75 1.80 0.90 3.95 1.75 4.75 1.95 2.20 0.55 21.05 9.75 26.40 12.90 1.40 0.85 3.40 1.80 4.35 2.15 0.95 0.35 4.75 2.05 8.45 3.75 9.65 4.45 15.40 6.80 23.05 9.35 l6.75 2.25 5.75 -0.40 c8.40 -0.65 11.20 -0.35 20.15 2.10 4.40 1.20 8.40 2.20 8.85 2.20 0.45 0 4.65 1.20 9.30 2.70 10.45 3.35 15.80 4.80 17.65 4.80 2.05 0 4.45 -0.95 7.30 -2.85 7.40 -5.10 14.50 -7.45 21 -7 9.75 0.70 20.55 2.20 23.25 3.25 0.70 0.25 2.90 0.75 4.90 1.05 2.05 0.30 5.25 1.10 7.10 1.75 1.90 0.70 6.20 1.80 9.60 2.50 11.15 2.30 14.40 3.60 25.30 10.25 3.70 2.25 7 4.05 7.40 4.05 0.60 0 0.70 2.45 0.70 15.80 l0 15.80 -1.85 -0.35 c-3.35 -0.60 -5.95 -2.05 -9.70 -5.50 -4.40 -4.05 -5.20 -4.55 -14.70 -9.50 -7.85 -4.10 -8.15 -4.20 -15.80 -5.70 -2.70 -0.55 -5.95 -1.35 -7.25 -1.80 -1.35 -0.45 -4.85 -1.15 -7.75 -1.55 -2.95 -0.35 -5.95 -0.90 -6.70 -1.20 -1.25 -0.45 -4.45 -0.90 -13.30 -1.85 -2.70 -0.25 -3 -0.15 -8.25 2.65 -10.65 5.75 -13.80 6.75 -21.10 6.75 -5.05 0 -9.80 -1 -22.35 -4.50 -3.85 -1.10 -11.50 -3.05 -16.95 -4.35 -9.85 -2.30 -10.05 -2.35 -19.25 -2.45 -7.30 -0.05 -9.90 -0.25 -12.05 -0.95 -1.50 -0.45 -3.75 -1.05 -5 -1.25 -3 -0.55 -9.80 -2.95 -17.75 -6.25 -3.55 -1.50 -9.20 -3.75 -12.50 -5.10 -3.30 -1.30 -11.40 -5 -18.05 -8.25 -6.60 -3.20 -12.60 -6 -13.25 -6.20 -0.65 -0.20 -4.90 -2.25 -9.45 -4.50 -4.55 -2.25 -9.65 -4.50 -11.40 -5 -3 -0.90 -3.45 -0.90 -8.50 -0.10 -2.95 0.40 -6.70 1.25 -8.25 1.85 -2.95 1.10 -11.85 6.70 -15.85 9.95 -1.25 1.05 -3.95 2.90 -6 4.25 -7.90 5 -11 7.70 -17.65 15.40 -4.55 5.30 -19.55 17.45 -23.95 19.40 -1.20 0.50 -3.65 2.15 -5.45 3.60 -5.30 4.25 -16.75 14.30 -18.55 16.20 -2.05 2.20 -9.20 7.95 -12.90 10.40 -1.50 0.95 -4 2.80 -5.50 4.05 -2.80 2.25 -5.85 4.50 -10.10 7.40 -1.30 0.90 -3.80 2.65 -5.50 3.95 -3 2.20 -8.75 5.60 -18.40 10.85 -5.75 3.15 -12.55 7.55 -18.40 12 -2.65 2 -6.10 4.30 -7.60 5.05 -3.05 1.55 -10.70 4.60 -13.50 5.40 -3.05 0.85 -11.85 4.80 -23.50 10.50 -18.85 9.15 -17.45 8.60 -21.45 8.60 l-3.55 0 0 -14.65z"/>
  <path d="M175.55 159.25 c-6.15 -2.25 -10.75 -8.55 -11.35 -15.50 -0.70 -7.45 1.65 -16.85 5.65 -22.75 5.45 -8.10 14.20 -12.50 23.40 -11.80 3.65 0.25 7.80 1.15 8.45 1.85 0.25 0.25 -1.50 7.45 -1.90 7.85 -0.10 0.05 -1.35 -0.45 -2.85 -1.15 -6.05 -2.80 -14 -0.55 -18.30 5.25 -4 5.40 -6.55 13.55 -5.90 19 0.45 3.90 2.35 7.60 4.80 9.25 1.65 1.20 2.65 1.45 5.85 1.65 4 0.20 8.50 -0.70 10.40 -2.15 0.50 -0.40 1.10 -0.75 1.35 -0.75 0.20 0 0.35 1.55 0.35 3.45 l0 3.50 -2.60 1.25 c-5.30 2.60 -12.15 3 -17.35 1.05z"/>
  <path d="M262.45 159.55 c-8.25 -2.65 -12.95 -9.60 -12.95 -19.15 0 -9.10 3.15 -17.40 8.60 -22.85 6.50 -6.50 17.65 -9.85 26.50 -8 3.25 0.70 6.50 2.30 6.30 3.10 -1.15 4.20 -2.20 6.40 -2.90 6.15 -0.40 -0.15 -2.10 -0.75 -3.75 -1.35 -3.80 -1.35 -9.70 -1.15 -13.50 0.55 -7.55 3.25 -12.20 10.95 -12.35 20.35 -0.10 6.40 0.35 7.90 3.30 10.90 1.70 1.75 3.20 2.85 4.55 3.20 4.45 1.20 11.60 0.25 13.35 -1.85 0.40 -0.45 1 -2.35 1.35 -4.20 0.30 -1.85 0.70 -4.05 0.85 -4.90 l0.35 -1.50 -3.60 0 c-3.20 0 -3.60 -0.10 -3.35 -0.85 0.15 -0.50 0.40 -1.95 0.60 -3.25 0.15 -1.30 0.60 -2.60 0.95 -2.90 0.45 -0.35 3.15 -0.50 7.60 -0.40 l6.90 0.15 -0.10 1.50 c-0.05 1.35 -2.80 17.40 -3.40 20.05 -0.35 1.50 -6.50 4.45 -11.35 5.40 -5.05 1.05 -10.45 0.95 -13.95 -0.15z"/>
  <path d="M374.25 160.05 c-8.40 -2.05 -13.25 -10.15 -12.60 -21.05 0.35 -5.95 1.30 -9.65 3.90 -14.90 4.85 -9.95 14 -15.70 23.70 -14.95 4.50 0.40 6.40 0.95 9.75 2.95 3.15 1.90 5.60 5.50 6.45 9.50 1.15 5.20 0.50 14.65 -1.40 20.20 -2.10 6.25 -7.95 13.30 -13.15 15.85 -4.80 2.35 -12.30 3.45 -16.65 2.40z m10.40 -7.75 c7.10 -2.55 12.10 -11.05 12.70 -21.55 0.40 -6.10 -0.35 -9.05 -2.75 -11.40 -2.30 -2.25 -3.90 -2.85 -7.50 -2.85 -9.25 0 -16.60 10.55 -16.60 23.80 0 4.50 0.15 5.30 1.40 7.75 1.85 3.70 3.85 4.95 7.80 4.95 1.70 -0.05 3.90 -0.35 4.95 -0.70z"/>
  <path d="M200.50 159.55 c0 -0.25 5.75 -10.10 12.85 -21.90 18.70 -31.25 17.05 -28.75 18.60 -28.55 1 0.10 1.35 0.50 1.65 1.90 2.20 10.55 3.55 17.40 4.70 23.25 0.70 3.85 2.20 11.05 3.25 16 1.05 4.90 1.75 9.15 1.55 9.35 -0.25 0.25 -2.20 0.40 -4.40 0.30 l-3.95 -0.15 -0.70 -4.50 c-0.35 -2.45 -0.75 -4.80 -0.85 -5.10 -0.15 -0.50 -2.45 -0.65 -9.35 -0.65 l-9.25 0 -2.60 4.65 c-1.45 2.50 -3 4.90 -3.40 5.25 -0.90 0.70 -8.10 0.85 -8.10 0.15z m27.90 -16.40 l3.65 -0.25 -0.30 -2.80 c-0.60 -4.85 -2.20 -14.60 -2.55 -15.15 -0.40 -0.70 -0.75 -0.15 -6.15 9.50 -3.30 6 -4.40 8.35 -3.90 8.65 0.65 0.40 3.45 0.45 9.25 0.05z"/>
  <path d="M297 159.50 c0 -0.35 0.80 -4.90 1.75 -10.15 1 -5.30 2.90 -15.80 4.30 -23.35 1.35 -7.55 2.60 -14.40 2.75 -15.15 l0.30 -1.40 4.05 0.15 c3.75 0.15 4.10 0.25 4.05 1.15 -0.05 1.20 -5.15 28.95 -8.40 45.75 l-0.65 3.25 -4.05 0.15 c-2.80 0.10 -4.10 -0.05 -4.10 -0.40z"/>
  <path d="M316.35 159.65 c-0.20 -0.35 0.25 -3.35 2.90 -17.90 4.15 -22.90 5.70 -31.30 5.95 -31.70 0.50 -0.75 13.65 -1.20 17.55 -0.55 4.25 0.70 9.05 3.15 10.65 5.50 1.95 2.90 2.35 5.15 1.70 9.10 -1 5.90 -4 9.90 -9.15 12.25 -1.60 0.80 -2.95 1.55 -2.95 1.80 0 0.20 2.35 5.10 5.25 10.85 2.90 5.75 5.25 10.60 5.25 10.75 0 0.15 -2.05 0.20 -4.60 0.15 l-4.55 -0.15 -4.55 -9.85 c-2.50 -5.40 -4.75 -10.05 -5.05 -10.30 -0.25 -0.30 -1.75 -0.65 -3.35 -0.80 l-2.80 -0.35 -0.55 2.65 c-0.30 1.45 -1.20 6.25 -1.95 10.65 l-1.40 8 -4.05 0.15 c-2.25 0.05 -4.20 -0.05 -4.30 -0.25z m24.45 -28.90 c3.55 -1.05 5.75 -3.50 6.10 -6.65 0.45 -4.90 -2.05 -7.10 -8.40 -7.50 -5.15 -0.25 -6.30 0.25 -6.65 3 -0.15 1.20 -0.65 4.05 -1.10 6.40 -0.40 2.30 -0.65 4.50 -0.50 4.85 0.30 0.90 7.40 0.85 10.55 -0.10z"/>
 </g>
</svg>